<mxfile host="65bd71144e">
    <diagram id="xH-T24poy5hYIG6f6IRd" name="Page-1">
        <mxGraphModel dx="1782" dy="244" grid="0" gridSize="10" guides="1" tooltips="1" connect="1" arrows="1" fold="1" page="0" pageScale="1" pageWidth="1100" pageHeight="850" math="0" shadow="0">
            <root>
                <mxCell id="0"/>
                <mxCell id="1" parent="0"/>
                <mxCell id="294" value="Giraffe Flight Computer - Block Diagram" style="swimlane;rounded=1;shadow=0;glass=0;sketch=0;fontSize=20;strokeColor=#8C8C8C;strokeWidth=2;" parent="1" vertex="1">
                    <mxGeometry x="-429" y="405" width="920" height="290" as="geometry"/>
                </mxCell>
                <mxCell id="357" style="edgeStyle=none;html=1;entryX=1;entryY=0.75;entryDx=0;entryDy=0;endArrow=none;endFill=0;strokeWidth=2;strokeColor=#b85450;fillColor=#f8cecc;gradientColor=#ea6b66;" parent="294" source="332" target="337" edge="1">
                    <mxGeometry relative="1" as="geometry">
                        <Array as="points">
                            <mxPoint x="760" y="245"/>
                            <mxPoint x="760" y="143"/>
                        </Array>
                    </mxGeometry>
                </mxCell>
                <mxCell id="312" value="Bottom PCB [GFC Shoe]" style="swimlane;rounded=1;shadow=0;glass=0;sketch=0;fontSize=12;strokeColor=#8C8C8C;strokeWidth=2;startSize=20;" parent="294" vertex="1">
                    <mxGeometry x="10" y="30" width="160" height="250" as="geometry"/>
                </mxCell>
                <mxCell id="342" style="edgeStyle=none;html=1;exitX=0.25;exitY=1;exitDx=0;exitDy=0;entryX=0.25;entryY=0;entryDx=0;entryDy=0;endArrow=none;endFill=0;strokeWidth=2;fillColor=#6d8764;strokeColor=#3A5431;" parent="312" source="325" target="327" edge="1">
                    <mxGeometry relative="1" as="geometry"/>
                </mxCell>
                <mxCell id="344" value="Audio In" style="edgeLabel;html=1;align=center;verticalAlign=middle;resizable=0;points=[];" parent="342" vertex="1" connectable="0">
                    <mxGeometry x="-0.1617" y="1" relative="1" as="geometry">
                        <mxPoint x="-1" y="13" as="offset"/>
                    </mxGeometry>
                </mxCell>
                <mxCell id="325" value="SA868&lt;br&gt;2w VHF Radio" style="whiteSpace=wrap;html=1;" parent="312" vertex="1">
                    <mxGeometry x="20" y="50" width="120" height="60" as="geometry"/>
                </mxCell>
                <mxCell id="343" style="edgeStyle=none;html=1;exitX=0.75;exitY=0;exitDx=0;exitDy=0;entryX=0.75;entryY=1;entryDx=0;entryDy=0;endArrow=none;endFill=0;strokeWidth=2;fillColor=#6d8764;strokeColor=#3A5431;" parent="312" source="327" target="325" edge="1">
                    <mxGeometry relative="1" as="geometry"/>
                </mxCell>
                <mxCell id="345" value="Audio Out" style="edgeLabel;html=1;align=center;verticalAlign=middle;resizable=0;points=[];" parent="343" vertex="1" connectable="0">
                    <mxGeometry x="-0.4597" y="-1" relative="1" as="geometry">
                        <mxPoint as="offset"/>
                    </mxGeometry>
                </mxCell>
                <mxCell id="327" value="PCM2902C&lt;br&gt;TI Sound Card IC" style="whiteSpace=wrap;html=1;" parent="312" vertex="1">
                    <mxGeometry x="20" y="150" width="120" height="60" as="geometry"/>
                </mxCell>
                <mxCell id="336" style="edgeStyle=none;html=1;entryX=0;entryY=0.5;entryDx=0;entryDy=0;endArrow=none;endFill=0;fillColor=#dae8fc;strokeColor=#6c8ebf;strokeWidth=2;" parent="294" source="311" target="334" edge="1">
                    <mxGeometry relative="1" as="geometry"/>
                </mxCell>
                <mxCell id="314" value="Top PCB [GFC Hat]" style="swimlane;rounded=1;shadow=0;glass=0;sketch=0;fontSize=12;strokeColor=#8C8C8C;strokeWidth=2;startSize=20;" parent="294" vertex="1">
                    <mxGeometry x="480" y="30" width="430" height="250" as="geometry"/>
                </mxCell>
                <mxCell id="329" value="BME280&lt;br&gt;Temp/Hum/Pres Sensor" style="whiteSpace=wrap;html=1;" parent="314" vertex="1">
                    <mxGeometry x="310" y="30" width="100" height="50" as="geometry"/>
                </mxCell>
                <mxCell id="330" value="SAM-M8Q&lt;br&gt;GPS" style="whiteSpace=wrap;html=1;" parent="314" vertex="1">
                    <mxGeometry x="310" y="110" width="100" height="50" as="geometry"/>
                </mxCell>
                <mxCell id="328" value="BMI088&lt;br&gt;6- Axis Gyro/Accelerator&amp;nbsp;" style="whiteSpace=wrap;html=1;" parent="314" vertex="1">
                    <mxGeometry x="160" y="30" width="100" height="50" as="geometry"/>
                </mxCell>
                <mxCell id="332" value="ADC&lt;br&gt;Battery Voltage" style="whiteSpace=wrap;html=1;" parent="314" vertex="1">
                    <mxGeometry x="310" y="190" width="100" height="50" as="geometry"/>
                </mxCell>
                <mxCell id="333" value="DS18B20&lt;br&gt;Temperature Probe&amp;nbsp;" style="whiteSpace=wrap;html=1;" parent="314" vertex="1">
                    <mxGeometry x="20" y="30" width="100" height="50" as="geometry"/>
                </mxCell>
                <mxCell id="334" value="5v Buck Boost Converter" style="whiteSpace=wrap;html=1;" parent="314" vertex="1">
                    <mxGeometry x="20" y="190" width="100" height="50" as="geometry"/>
                </mxCell>
                <mxCell id="335" value="Pi Hat EEPROM" style="whiteSpace=wrap;html=1;" parent="314" vertex="1">
                    <mxGeometry x="150" y="190" width="100" height="50" as="geometry"/>
                </mxCell>
                <UserObject label="Battery&lt;br&gt;[2x 21700 Cells]&amp;nbsp;" treeRoot="1" id="311">
                    <mxCell style="whiteSpace=wrap;html=1;align=center;treeFolding=1;treeMoving=1;newEdgeStyle={&quot;edgeStyle&quot;:&quot;elbowEdgeStyle&quot;,&quot;startArrow&quot;:&quot;none&quot;,&quot;endArrow&quot;:&quot;none&quot;};" parent="294" vertex="1">
                        <mxGeometry x="360" y="220" width="102" height="50" as="geometry"/>
                    </mxCell>
                </UserObject>
                <mxCell id="338" style="edgeStyle=none;html=1;entryX=1;entryY=0.75;entryDx=0;entryDy=0;endArrow=none;endFill=0;strokeWidth=2;fillColor=#d80073;strokeColor=#A50040;" parent="294" source="337" target="325" edge="1">
                    <mxGeometry relative="1" as="geometry"/>
                </mxCell>
                <mxCell id="339" value="UART" style="edgeLabel;html=1;align=center;verticalAlign=middle;resizable=0;points=[];" parent="338" vertex="1" connectable="0">
                    <mxGeometry x="-0.3486" y="-2" relative="1" as="geometry">
                        <mxPoint x="-13" y="2" as="offset"/>
                    </mxGeometry>
                </mxCell>
                <mxCell id="337" value="Raspberry Pi Zero 2" style="whiteSpace=wrap;html=1;rounded=1;shadow=0;glass=0;strokeColor=#82b366;strokeWidth=2;align=center;verticalAlign=middle;fontFamily=Helvetica;fontSize=12;fontColor=default;fillColor=#d5e8d4;" parent="294" vertex="1">
                    <mxGeometry x="250" y="90" width="130" height="70" as="geometry"/>
                </mxCell>
                <mxCell id="340" style="edgeStyle=none;html=1;exitX=-0.004;exitY=0.071;exitDx=0;exitDy=0;entryX=1;entryY=0.25;entryDx=0;entryDy=0;endArrow=none;endFill=0;strokeWidth=2;exitPerimeter=0;fillColor=#e3c800;strokeColor=#B09500;" parent="294" edge="1">
                    <mxGeometry relative="1" as="geometry">
                        <mxPoint x="250.00000000000003" y="100.00000000000003" as="sourcePoint"/>
                        <mxPoint x="150.52" y="100.03" as="targetPoint"/>
                    </mxGeometry>
                </mxCell>
                <mxCell id="341" value="GPIO" style="edgeLabel;html=1;align=center;verticalAlign=middle;resizable=0;points=[];" parent="340" vertex="1" connectable="0">
                    <mxGeometry x="-0.1337" y="-1" relative="1" as="geometry">
                        <mxPoint x="-2" y="1" as="offset"/>
                    </mxGeometry>
                </mxCell>
                <mxCell id="346" style="edgeStyle=none;html=1;exitX=1;exitY=0.5;exitDx=0;exitDy=0;entryX=0.077;entryY=1.003;entryDx=0;entryDy=0;endArrow=none;endFill=0;strokeWidth=2;entryPerimeter=0;fillColor=#fad9d5;strokeColor=#ae4132;" parent="294" source="327" target="337" edge="1">
                    <mxGeometry relative="1" as="geometry">
                        <Array as="points">
                            <mxPoint x="260" y="210"/>
                        </Array>
                    </mxGeometry>
                </mxCell>
                <mxCell id="347" value="USB" style="edgeLabel;html=1;align=center;verticalAlign=middle;resizable=0;points=[];" parent="346" vertex="1" connectable="0">
                    <mxGeometry x="-0.219" relative="1" as="geometry">
                        <mxPoint x="-8" as="offset"/>
                    </mxGeometry>
                </mxCell>
                <mxCell id="348" style="edgeStyle=none;html=1;entryX=0.5;entryY=0;entryDx=0;entryDy=0;endArrow=none;endFill=0;strokeWidth=2;exitX=0;exitY=0.25;exitDx=0;exitDy=0;gradientColor=#d5739d;fillColor=#e6d0de;strokeColor=#996185;" parent="294" source="333" target="337" edge="1">
                    <mxGeometry relative="1" as="geometry">
                        <Array as="points">
                            <mxPoint x="315" y="73"/>
                        </Array>
                    </mxGeometry>
                </mxCell>
                <mxCell id="349" value="1-Wire" style="edgeLabel;html=1;align=center;verticalAlign=middle;resizable=0;points=[];" parent="348" vertex="1" connectable="0">
                    <mxGeometry x="-0.0059" relative="1" as="geometry">
                        <mxPoint as="offset"/>
                    </mxGeometry>
                </mxCell>
                <mxCell id="350" style="edgeStyle=none;html=1;entryX=1;entryY=0.5;entryDx=0;entryDy=0;endArrow=none;endFill=0;strokeWidth=2;gradientColor=#97d077;fillColor=#d5e8d4;strokeColor=#82b366;" parent="294" source="328" target="337" edge="1">
                    <mxGeometry relative="1" as="geometry">
                        <Array as="points">
                            <mxPoint x="690" y="125"/>
                        </Array>
                    </mxGeometry>
                </mxCell>
                <mxCell id="351" value="SPI 0" style="edgeLabel;html=1;align=center;verticalAlign=middle;resizable=0;points=[];" parent="350" vertex="1" connectable="0">
                    <mxGeometry x="0.152" relative="1" as="geometry">
                        <mxPoint x="22" as="offset"/>
                    </mxGeometry>
                </mxCell>
                <mxCell id="352" style="edgeStyle=none;html=1;entryX=1;entryY=0.75;entryDx=0;entryDy=0;endArrow=none;endFill=0;strokeWidth=2;gradientColor=#ea6b66;fillColor=#f8cecc;strokeColor=#b85450;" parent="294" source="329" target="337" edge="1">
                    <mxGeometry relative="1" as="geometry">
                        <Array as="points">
                            <mxPoint x="760" y="85"/>
                            <mxPoint x="760" y="143"/>
                        </Array>
                    </mxGeometry>
                </mxCell>
                <mxCell id="355" style="edgeStyle=none;html=1;entryX=1;entryY=0.75;entryDx=0;entryDy=0;endArrow=none;endFill=0;strokeWidth=2;strokeColor=#b85450;fillColor=#f8cecc;gradientColor=#ea6b66;" parent="294" source="330" target="337" edge="1">
                    <mxGeometry relative="1" as="geometry">
                        <Array as="points">
                            <mxPoint x="760" y="165"/>
                            <mxPoint x="760" y="143"/>
                        </Array>
                    </mxGeometry>
                </mxCell>
                <mxCell id="356" value="I2C 0" style="edgeLabel;html=1;align=center;verticalAlign=middle;resizable=0;points=[];" parent="355" vertex="1" connectable="0">
                    <mxGeometry x="0.2583" y="-1" relative="1" as="geometry">
                        <mxPoint as="offset"/>
                    </mxGeometry>
                </mxCell>
                <mxCell id="358" style="edgeStyle=none;html=1;entryX=1;entryY=1;entryDx=0;entryDy=0;endArrow=none;endFill=0;strokeWidth=2;gradientColor=#ffd966;fillColor=#fff2cc;strokeColor=#d6b656;" parent="294" source="335" target="337" edge="1">
                    <mxGeometry relative="1" as="geometry">
                        <Array as="points">
                            <mxPoint x="680" y="160"/>
                        </Array>
                    </mxGeometry>
                </mxCell>
                <mxCell id="359" value="I2C 1" style="edgeLabel;html=1;align=center;verticalAlign=middle;resizable=0;points=[];" parent="358" vertex="1" connectable="0">
                    <mxGeometry x="0.11" y="-1" relative="1" as="geometry">
                        <mxPoint as="offset"/>
                    </mxGeometry>
                </mxCell>
                <mxCell id="395" value="Backplane" style="swimlane;rounded=1;shadow=0;glass=0;sketch=0;fontSize=12;strokeColor=#8C8C8C;strokeWidth=2;startSize=20;" vertex="1" parent="1">
                    <mxGeometry x="-426" y="736" width="958" height="451" as="geometry"/>
                </mxCell>
                <mxCell id="419" style="edgeStyle=none;html=1;exitX=0.5;exitY=1;exitDx=0;exitDy=0;entryX=0.5;entryY=0;entryDx=0;entryDy=0;endArrow=none;endFill=0;fillColor=#008a00;strokeColor=#005700;strokeWidth=2;" edge="1" parent="395" source="402" target="418">
                    <mxGeometry relative="1" as="geometry"/>
                </mxCell>
                <mxCell id="429" value="5V" style="edgeLabel;html=1;align=center;verticalAlign=middle;resizable=0;points=[];" vertex="1" connectable="0" parent="419">
                    <mxGeometry x="-0.1024" y="1" relative="1" as="geometry">
                        <mxPoint as="offset"/>
                    </mxGeometry>
                </mxCell>
                <mxCell id="432" style="edgeStyle=none;html=1;exitX=1;exitY=0.5;exitDx=0;exitDy=0;rounded=1;strokeColor=#005700;strokeWidth=2;align=center;verticalAlign=middle;fontFamily=Helvetica;fontSize=11;fontColor=default;labelBackgroundColor=default;endArrow=none;endFill=0;fillColor=#008a00;" edge="1" parent="395" source="402">
                    <mxGeometry relative="1" as="geometry">
                        <mxPoint x="651" y="73" as="targetPoint"/>
                    </mxGeometry>
                </mxCell>
                <mxCell id="433" value="5V" style="edgeLabel;html=1;align=center;verticalAlign=middle;resizable=0;points=[];" vertex="1" connectable="0" parent="432">
                    <mxGeometry x="0.5488" y="-1" relative="1" as="geometry">
                        <mxPoint x="-33" y="-1" as="offset"/>
                    </mxGeometry>
                </mxCell>
                <mxCell id="402" value="&lt;div&gt;&lt;b&gt;Primary 5V Reg&lt;/b&gt;&lt;/div&gt;&lt;div&gt;&lt;span style=&quot;background-color: transparent;&quot;&gt;&lt;font style=&quot;font-size: 10px;&quot;&gt;Buck 3A Sustained&lt;/font&gt;&lt;/span&gt;&lt;/div&gt;" style="whiteSpace=wrap;html=1;" vertex="1" parent="395">
                    <mxGeometry x="441" y="43" width="120" height="60" as="geometry"/>
                </mxCell>
                <mxCell id="426" style="edgeStyle=none;html=1;exitX=1;exitY=0.5;exitDx=0;exitDy=0;entryX=0;entryY=0.5;entryDx=0;entryDy=0;endArrow=none;endFill=0;fillColor=#a20025;strokeColor=#6F0000;strokeWidth=2;" edge="1" parent="395" source="398" target="405">
                    <mxGeometry relative="1" as="geometry">
                        <Array as="points">
                            <mxPoint x="167" y="143"/>
                            <mxPoint x="167" y="73"/>
                        </Array>
                    </mxGeometry>
                </mxCell>
                <mxCell id="458" style="edgeStyle=none;html=1;entryX=0.5;entryY=1;entryDx=0;entryDy=0;exitX=0.25;exitY=1;exitDx=0;exitDy=0;endArrow=none;endFill=0;" edge="1" parent="395" source="398" target="422">
                    <mxGeometry relative="1" as="geometry">
                        <Array as="points">
                            <mxPoint x="61" y="339"/>
                            <mxPoint x="290" y="339"/>
                        </Array>
                    </mxGeometry>
                </mxCell>
                <mxCell id="459" value="USB" style="edgeLabel;html=1;align=center;verticalAlign=middle;resizable=0;points=[];" vertex="1" connectable="0" parent="458">
                    <mxGeometry x="0.0162" y="-1" relative="1" as="geometry">
                        <mxPoint as="offset"/>
                    </mxGeometry>
                </mxCell>
                <mxCell id="398" value="USB-C&lt;div&gt;PD 20V&lt;/div&gt;" style="whiteSpace=wrap;html=1;" vertex="1" parent="395">
                    <mxGeometry x="31" y="113" width="120" height="60" as="geometry"/>
                </mxCell>
                <mxCell id="427" style="edgeStyle=none;html=1;exitX=1;exitY=0.5;exitDx=0;exitDy=0;entryX=0;entryY=0.5;entryDx=0;entryDy=0;endArrow=none;endFill=0;fillColor=#a20025;strokeColor=#6F0000;strokeWidth=2;" edge="1" parent="395" source="401" target="405">
                    <mxGeometry relative="1" as="geometry"/>
                </mxCell>
                <mxCell id="428" value="6-20V" style="edgeLabel;html=1;align=center;verticalAlign=middle;resizable=0;points=[];" vertex="1" connectable="0" parent="427">
                    <mxGeometry x="0.2009" y="-1" relative="1" as="geometry">
                        <mxPoint as="offset"/>
                    </mxGeometry>
                </mxCell>
                <mxCell id="401" value="&lt;div&gt;Battery&lt;/div&gt;&lt;div&gt;6.0V - 20&lt;span style=&quot;background-color: transparent;&quot;&gt;V&lt;/span&gt;&lt;/div&gt;" style="whiteSpace=wrap;html=1;" vertex="1" parent="395">
                    <mxGeometry x="31" y="43" width="120" height="60" as="geometry"/>
                </mxCell>
                <mxCell id="425" style="edgeStyle=none;html=1;exitX=0.5;exitY=1;exitDx=0;exitDy=0;entryX=0.5;entryY=0;entryDx=0;entryDy=0;endArrow=none;endFill=0;fillColor=#a20025;strokeColor=#6F0000;strokeWidth=2;" edge="1" parent="395" source="405" target="413">
                    <mxGeometry relative="1" as="geometry"/>
                </mxCell>
                <mxCell id="405" value="Power Source Selection" style="whiteSpace=wrap;html=1;" vertex="1" parent="395">
                    <mxGeometry x="230" y="43" width="120" height="60" as="geometry"/>
                </mxCell>
                <mxCell id="430" style="edgeStyle=none;html=1;exitX=1;exitY=0.5;exitDx=0;exitDy=0;entryX=0;entryY=0.5;entryDx=0;entryDy=0;rounded=1;strokeColor=#6F0000;strokeWidth=2;align=center;verticalAlign=middle;fontFamily=Helvetica;fontSize=11;fontColor=default;labelBackgroundColor=default;endArrow=none;endFill=0;fillColor=#a20025;" edge="1" parent="395" source="413" target="402">
                    <mxGeometry relative="1" as="geometry">
                        <Array as="points">
                            <mxPoint x="376" y="143"/>
                            <mxPoint x="376" y="109"/>
                            <mxPoint x="376" y="73"/>
                        </Array>
                    </mxGeometry>
                </mxCell>
                <mxCell id="443" value="6-20V" style="edgeLabel;html=1;align=center;verticalAlign=middle;resizable=0;points=[];" vertex="1" connectable="0" parent="430">
                    <mxGeometry x="0.2605" y="1" relative="1" as="geometry">
                        <mxPoint y="15" as="offset"/>
                    </mxGeometry>
                </mxCell>
                <mxCell id="437" style="edgeStyle=none;html=1;exitX=0;exitY=0.5;exitDx=0;exitDy=0;entryX=0.5;entryY=0;entryDx=0;entryDy=0;rounded=1;strokeColor=#6F0000;strokeWidth=2;align=center;verticalAlign=middle;fontFamily=Helvetica;fontSize=11;fontColor=default;labelBackgroundColor=default;endArrow=none;endFill=0;fillColor=#a20025;" edge="1" parent="395" source="413" target="420">
                    <mxGeometry relative="1" as="geometry">
                        <Array as="points">
                            <mxPoint x="194" y="143"/>
                            <mxPoint x="194" y="196"/>
                            <mxPoint x="135" y="197"/>
                        </Array>
                    </mxGeometry>
                </mxCell>
                <mxCell id="442" value="6-20V" style="edgeLabel;html=1;align=center;verticalAlign=middle;resizable=0;points=[];" vertex="1" connectable="0" parent="437">
                    <mxGeometry x="-0.3306" y="-1" relative="1" as="geometry">
                        <mxPoint as="offset"/>
                    </mxGeometry>
                </mxCell>
                <mxCell id="413" value="Voltage &amp;amp; Current Sense" style="whiteSpace=wrap;html=1;" vertex="1" parent="395">
                    <mxGeometry x="230" y="113" width="120" height="60" as="geometry"/>
                </mxCell>
                <mxCell id="438" style="edgeStyle=none;html=1;exitX=1;exitY=0.5;exitDx=0;exitDy=0;rounded=1;strokeColor=#2D7600;strokeWidth=2;align=center;verticalAlign=middle;fontFamily=Helvetica;fontSize=11;fontColor=default;labelBackgroundColor=default;endArrow=none;endFill=0;fillColor=#60a917;" edge="1" parent="395" source="418">
                    <mxGeometry relative="1" as="geometry">
                        <mxPoint x="656.4651678176153" y="154.04761904761904" as="targetPoint"/>
                    </mxGeometry>
                </mxCell>
                <mxCell id="439" value="3V3" style="edgeLabel;html=1;align=center;verticalAlign=middle;resizable=0;points=[];rounded=1;strokeColor=#005700;strokeWidth=2;fontFamily=Helvetica;fontSize=11;fontColor=default;labelBackgroundColor=default;fillColor=#008a00;" vertex="1" connectable="0" parent="438">
                    <mxGeometry x="-0.2353" y="1" relative="1" as="geometry">
                        <mxPoint as="offset"/>
                    </mxGeometry>
                </mxCell>
                <mxCell id="418" value="&lt;div&gt;&lt;b&gt;Primary 3V3 Reg&lt;/b&gt;&lt;/div&gt;&lt;div&gt;? 500mA Max&lt;/div&gt;" style="whiteSpace=wrap;html=1;" vertex="1" parent="395">
                    <mxGeometry x="441" y="124" width="120" height="60" as="geometry"/>
                </mxCell>
                <mxCell id="420" value="&lt;div&gt;&lt;b style=&quot;background-color: transparent; color: rgb(63, 63, 63); scrollbar-color: light-dark(#e2e2e2, #4b4b4b)&lt;br/&gt;&#x9;&#x9;&#x9;&#x9;&#x9;light-dark(#fbfbfb, var(--dark-panel-color));&quot;&gt;RP2040&amp;nbsp;&lt;/b&gt;&lt;b&gt;3V3 Reg&lt;/b&gt;&lt;/div&gt;&lt;div&gt;&lt;font style=&quot;font-size: 10px;&quot;&gt;Buck 500mA Sustained&lt;/font&gt;&lt;/div&gt;" style="whiteSpace=wrap;html=1;" vertex="1" parent="395">
                    <mxGeometry x="75" y="250" width="120" height="60" as="geometry"/>
                </mxCell>
                <mxCell id="424" style="edgeStyle=none;html=1;exitX=1;exitY=0.5;exitDx=0;exitDy=0;entryX=0;entryY=0.5;entryDx=0;entryDy=0;endArrow=none;endFill=0;fillColor=#fff2cc;strokeColor=#d6b656;strokeWidth=2;rounded=1;align=center;verticalAlign=middle;fontFamily=Helvetica;fontSize=11;fontColor=default;labelBackgroundColor=default;gradientColor=#ffd966;" edge="1" parent="395" source="422" target="423">
                    <mxGeometry relative="1" as="geometry">
                        <Array as="points"/>
                    </mxGeometry>
                </mxCell>
                <mxCell id="435" value="RP I2C 0" style="edgeLabel;html=1;align=center;verticalAlign=middle;resizable=0;points=[];rounded=1;strokeColor=#d6b656;strokeWidth=2;fontFamily=Helvetica;fontSize=11;fontColor=default;labelBackgroundColor=default;fillColor=#fff2cc;gradientColor=#ffd966;" vertex="1" connectable="0" parent="424">
                    <mxGeometry x="-0.1272" y="2" relative="1" as="geometry">
                        <mxPoint as="offset"/>
                    </mxGeometry>
                </mxCell>
                <mxCell id="434" style="edgeStyle=none;html=1;exitX=0;exitY=0.5;exitDx=0;exitDy=0;entryX=1;entryY=0.5;entryDx=0;entryDy=0;strokeWidth=2;endArrow=none;endFill=0;" edge="1" parent="395" source="422" target="420">
                    <mxGeometry relative="1" as="geometry"/>
                </mxCell>
                <mxCell id="444" style="edgeStyle=none;html=1;exitX=1;exitY=0.25;exitDx=0;exitDy=0;entryX=0;entryY=0.75;entryDx=0;entryDy=0;endArrow=none;endFill=0;strokeWidth=2;" edge="1" parent="395" source="422" target="402">
                    <mxGeometry relative="1" as="geometry">
                        <Array as="points">
                            <mxPoint x="409" y="265"/>
                            <mxPoint x="409" y="88"/>
                        </Array>
                    </mxGeometry>
                </mxCell>
                <mxCell id="445" value="GPIO Pin X&lt;div&gt;Disable 5V&lt;/div&gt;" style="edgeLabel;html=1;align=center;verticalAlign=middle;resizable=0;points=[];" vertex="1" connectable="0" parent="444">
                    <mxGeometry x="-0.3703" y="1" relative="1" as="geometry">
                        <mxPoint x="1" y="-30" as="offset"/>
                    </mxGeometry>
                </mxCell>
                <mxCell id="456" style="edgeStyle=none;html=1;exitX=0.75;exitY=0;exitDx=0;exitDy=0;entryX=0.75;entryY=1;entryDx=0;entryDy=0;endArrow=none;endFill=0;" edge="1" parent="395">
                    <mxGeometry relative="1" as="geometry">
                        <mxPoint x="289.76" y="250" as="sourcePoint"/>
                        <mxPoint x="289.76" y="173" as="targetPoint"/>
                    </mxGeometry>
                </mxCell>
                <mxCell id="457" value="ADC 1&lt;div&gt;ADC 2&lt;/div&gt;&lt;div&gt;ADC 3&lt;/div&gt;" style="edgeLabel;html=1;align=center;verticalAlign=middle;resizable=0;points=[];" vertex="1" connectable="0" parent="456">
                    <mxGeometry x="0.5184" y="-1" relative="1" as="geometry">
                        <mxPoint y="18" as="offset"/>
                    </mxGeometry>
                </mxCell>
                <mxCell id="422" value="&lt;div&gt;&lt;b&gt;RP2040&lt;/b&gt;&lt;/div&gt;" style="whiteSpace=wrap;html=1;fillColor=#d5e8d4;strokeColor=#82b366;strokeWidth=2;perimeterSpacing=0;rounded=1;glass=0;shadow=0;" vertex="1" parent="395">
                    <mxGeometry x="230" y="250" width="120" height="60" as="geometry"/>
                </mxCell>
                <mxCell id="423" value="&lt;b&gt;20M WSPR Beacon&lt;span style=&quot;background-color: transparent;&quot;&gt;&amp;nbsp;&lt;/span&gt;&lt;/b&gt;&lt;div&gt;&lt;div&gt;&lt;span style=&quot;background-color: transparent;&quot;&gt;SI5351,&amp;nbsp;&lt;/span&gt;&lt;span style=&quot;color: rgb(63, 63, 63); background-color: transparent;&quot;&gt;100mw&lt;/span&gt;&lt;/div&gt;&lt;/div&gt;" style="whiteSpace=wrap;html=1;" vertex="1" parent="395">
                    <mxGeometry x="441" y="250" width="120" height="60" as="geometry"/>
                </mxCell>
            </root>
        </mxGraphModel>
    </diagram>
</mxfile>